<?xml version="1.0" standalone="no"?>
<!DOCTYPE svg PUBLIC "-//W3C//DTD SVG 20010904//EN"
 "http://www.w3.org/TR/2001/REC-SVG-20010904/DTD/svg10.dtd">
<svg version="1.0" xmlns="http://www.w3.org/2000/svg"
 width="300.000000pt" height="47.000000pt" viewBox="0 0 300.000000 47.000000"
 preserveAspectRatio="xMidYMid meet">
<metadata>
Created by potrace 1.10, written by Peter Selinger 2001-2011
</metadata>
<g transform="translate(0.000000,47.000000) scale(0.100000,-0.100000)"
fill="#ffd700" stroke="none">
<path d="M67 429 c-18 -14 -19 -20 -7 -68 12 -50 34 -75 49 -54 3 5 14 12 24
16 16 6 17 -3 17 -111 0 -70 -4 -122 -11 -129 -7 -7 -6 -15 5 -25 8 -9 12 -18
9 -22 -4 -3 21 -6 53 -6 33 0 65 5 71 11 8 8 10 54 6 149 -5 135 -5 137 16
135 36 -2 48 -33 46 -110 -1 -38 -3 -74 -5 -80 -2 -5 -1 -20 4 -32 6 -20 14
-23 61 -23 34 0 55 5 58 13 3 9 7 9 18 0 22 -18 135 -21 124 -3 -8 12 8 13 21
1 5 -5 46 -11 91 -14 l82 -4 14 36 c13 31 13 40 0 64 -7 15 -19 25 -24 21 -6
-3 -17 3 -25 15 -8 12 -24 21 -35 21 -17 0 -20 -6 -17 -32 2 -28 8 -34 31 -36
16 -2 36 3 44 10 15 11 16 11 10 -5 -4 -10 -7 -29 -7 -41 0 -22 -2 -23 -77
-18 -86 5 -92 7 -75 24 15 15 16 204 2 213 -24 15 -5 20 70 20 80 0 80 0 80
-26 0 -24 -3 -26 -37 -25 -32 1 -38 -2 -41 -22 -3 -21 -1 -23 31 -17 34 7 34
6 33 -29 -1 -43 18 -53 22 -11 1 17 7 49 12 73 9 37 8 47 -8 67 -11 13 -21 22
-24 20 -5 -5 -144 -17 -173 -15 -11 1 -32 2 -47 2 -18 0 -25 4 -21 12 5 8 3 8
-8 -1 -8 -6 -16 -11 -19 -12 -3 0 -13 -3 -23 -6 -9 -4 -24 -2 -32 5 -7 6 -27
10 -42 8 -20 -2 -28 1 -28 12 0 34 -35 43 -169 44 -104 1 -134 -2 -149 -15z
m289 -31 c-3 -13 -6 -34 -6 -48 -1 -23 -2 -24 -14 -7 -8 10 -30 21 -50 24
l-36 6 0 -137 c0 -103 4 -142 15 -159 14 -22 14 -22 -46 -19 -52 3 -59 6 -52
20 4 10 9 79 11 155 2 107 0 137 -10 137 -34 0 -59 -14 -64 -36 -9 -34 -27
-30 -19 4 3 16 1 41 -4 55 l-11 27 146 0 146 0 -6 -22z m244 -40 c0 -4 -4 -10
-10 -13 -13 -8 -13 -191 0 -216 10 -18 7 -19 -47 -19 -44 0 -54 3 -45 12 7 7
12 34 12 60 l0 48 -35 0 -35 0 0 -48 c0 -26 5 -53 12 -60 9 -9 -1 -12 -45 -12
-55 0 -57 1 -47 21 7 12 10 62 8 125 l-3 104 50 0 c28 0 45 -4 39 -8 -6 -4
-13 -22 -16 -39 -4 -32 -4 -33 34 -33 37 0 38 1 38 35 0 19 -4 35 -10 35 -5 0
-10 3 -10 8 0 4 25 7 55 7 30 0 55 -3 55 -7z m-110 -39 c0 -5 -4 -9 -10 -9 -5
0 -10 7 -10 16 0 8 5 12 10 9 6 -3 10 -10 10 -16z m128 -51 c-1 -61 -1 -61 -7
-18 -4 25 -5 53 -3 63 8 34 12 16 10 -45z m-4 -83 c3 -8 1 -15 -4 -15 -6 0
-10 7 -10 15 0 8 2 15 4 15 2 0 6 -7 10 -15z m-137 -9 c-3 -8 -2 -17 4 -20 5
-2 4 -3 -3 -2 -17 3 -23 36 -8 36 7 0 10 -6 7 -14z"/>
<path d="M878 432 c-22 -15 -24 -20 -14 -42 6 -14 15 -28 21 -32 5 -4 7 -8 3
-8 -7 0 6 -42 32 -105 5 -11 20 -54 35 -95 43 -121 46 -129 63 -142 20 -17 25
-32 -105 332 -9 25 -22 50 -30 56 -23 20 -14 24 47 24 l60 0 -6 -27 c-3 -17 7
-66 24 -121 l28 -93 33 108 c21 70 29 109 22 111 -6 2 -11 8 -11 13 0 5 29 9
65 9 36 0 65 -3 65 -6 0 -3 -9 -13 -20 -22 -23 -19 -153 -356 -147 -381 2 -11
9 -5 22 21 10 20 22 35 27 32 4 -3 5 1 3 9 -3 7 8 47 25 88 18 41 34 83 38 94
3 11 14 34 24 50 l18 30 1 -35 c2 -79 -3 -155 -11 -170 -15 -28 12 -49 66 -49
27 -1 73 -1 102 -1 70 -1 85 11 76 64 l-7 41 40 -35 c22 -19 38 -37 36 -39 -1
-2 11 -13 29 -24 30 -18 32 -18 45 -1 7 10 13 30 13 46 0 36 13 36 39 -1 35
-49 90 -64 203 -56 75 5 101 11 113 25 12 13 14 23 7 37 -12 22 -13 174 -2
188 19 25 -15 62 -52 56 -5 0 -8 5 -8 12 0 9 -2 9 -8 -1 -10 -15 -72 -19 -96
-5 -30 17 -130 -14 -168 -51 -30 -30 -31 -30 -15 -4 17 27 16 28 -6 42 -25 17
-92 15 -110 -3 -7 -7 -7 -18 1 -36 20 -44 18 -44 -48 18 -32 29 -22 28 -195
27 -32 0 -37 2 -23 10 16 10 16 12 -3 31 -17 17 -30 20 -60 16 -22 -3 -39 -1
-39 4 0 11 -42 -9 -52 -25 -4 -6 -6 -17 -3 -25 7 -18 -13 -88 -27 -97 -6 -4
-8 -3 -4 4 3 5 1 12 -5 14 -6 2 -13 26 -16 53 -7 63 -13 70 -59 73 -21 2 -40
5 -44 7 -3 2 -18 -4 -32 -13z m425 -79 c-15 -6 -18 -204 -4 -231 8 -15 4 -17
-37 -14 l-47 4 0 124 0 124 50 -1 c28 0 44 -3 38 -6z m150 -48 c33 -30 61 -55
63 -55 12 0 2 81 -12 94 -14 15 -11 16 37 16 41 0 49 -3 41 -13 -7 -8 -12 -64
-13 -135 0 -67 -2 -122 -4 -122 -10 0 -154 154 -150 160 3 5 1 11 -5 15 -6 4
-10 -19 -10 -64 0 -38 5 -73 10 -76 22 -13 8 -20 -35 -17 -37 3 -44 7 -34 18
7 8 10 52 7 124 l-3 110 25 0 c16 0 45 -19 83 -55z m349 14 c-4 -38 -5 -39
-19 -20 -9 13 -25 21 -43 21 -91 0 -89 -142 2 -164 30 -8 41 -6 56 7 18 17 19
16 18 -28 l-1 -44 -40 5 c-132 20 -198 110 -150 204 21 41 60 59 125 60 l56 0
-4 -41z m131 34 c-16 -6 -18 -219 -3 -228 21 -13 8 -20 -40 -20 -41 0 -49 3
-44 15 11 28 4 224 -9 232 -7 4 15 7 48 7 33 0 54 -3 48 -6z m-608 -131 c-3
-42 -8 -78 -10 -80 -2 -2 -3 39 -2 91 1 56 5 89 10 81 5 -8 6 -49 2 -92z m502
86 c-3 -8 -6 -5 -6 6 -1 11 2 17 5 13 3 -3 4 -12 1 -19z m-48 -37 c10 -16 22
-13 38 8 10 13 12 7 11 -36 0 -30 -5 -50 -10 -47 -5 3 -17 -1 -26 -9 -30 -27
-68 -11 -83 35 -12 37 -11 42 6 54 21 16 53 13 64 -5z"/>
<path d="M1432 275 c26 -27 49 -47 52 -45 2 3 -19 25 -48 49 l-51 44 47 -48z"/>
<path d="M1497 192 c12 -11 20 -22 17 -24 -2 -3 2 -10 9 -16 11 -9 14 -8 14 4
0 8 -14 24 -31 35 -29 19 -29 19 -9 1z"/>
<path d="M2101 433 c-14 -9 -21 -11 -17 -4 18 29 -36 -16 -59 -49 -39 -57 -51
-144 -27 -203 30 -71 82 -116 166 -141 72 -22 107 -8 108 43 1 41 10 45 42 20
20 -16 34 -19 57 -14 32 7 81 47 92 75 4 8 6 -1 5 -20 -2 -70 -4 -68 68 -64
37 1 79 6 94 9 32 7 110 81 111 104 0 11 3 10 8 -4 5 -11 6 -24 3 -29 -10 -17
-9 -76 2 -85 14 -11 35 -14 119 -12 38 0 66 5 63 10 -3 5 1 11 9 15 23 8 20
78 -5 99 -11 9 -20 13 -20 8 0 -12 -39 -21 -46 -10 -3 5 4 9 16 9 18 0 19 3
10 20 -6 12 -21 20 -36 20 -25 0 -26 -10 -8 -67 5 -17 56 -17 73 0 11 10 13 9
7 -6 -3 -10 -6 -29 -6 -42 0 -23 -3 -24 -85 -27 -79 -3 -100 2 -75 17 15 9 13
228 -2 243 -9 9 7 12 75 12 85 0 87 0 87 -24 0 -22 -3 -24 -40 -19 -38 5 -40
4 -40 -22 0 -25 2 -27 33 -21 33 6 33 6 29 -29 -2 -19 0 -35 6 -35 14 0 20 20
17 58 -2 17 1 32 6 32 14 0 11 66 -3 78 -16 12 -79 21 -72 10 3 -4 -16 -5 -42
-3 -53 6 -103 -17 -86 -38 13 -16 21 -77 10 -77 -4 0 -8 7 -8 15 0 8 -4 15
-10 15 -5 0 -10 7 -10 15 0 8 -6 15 -14 15 -7 0 -16 9 -19 21 -3 12 -10 18
-17 14 -6 -4 -18 -1 -26 6 -8 6 -36 12 -62 12 -26 0 -49 3 -52 7 -3 4 -20 1
-39 -7 -30 -13 -33 -17 -27 -46 6 -29 5 -30 -8 -12 -8 11 -12 24 -9 30 4 5 2
7 -2 2 -5 -4 -15 -1 -24 7 -9 8 -25 15 -36 17 -34 5 -93 -11 -99 -26 -3 -8
-11 -15 -18 -15 -9 0 -9 3 -2 8 18 12 8 64 -16 84 -29 24 -116 25 -149 1z
m116 -9 c28 -6 30 -8 29 -59 -1 -56 -3 -58 -20 -23 -15 30 -79 37 -107 12 -52
-47 -44 -147 15 -201 42 -39 78 -42 100 -11 9 12 16 18 17 13 1 -17 -3 -100
-5 -102 -8 -8 -127 32 -158 54 -72 49 -97 148 -58 229 29 58 57 76 151 93 4 0
20 -2 36 -5z m183 -74 c28 -15 60 -74 60 -110 0 -36 -32 -95 -60 -110 -74 -39
-164 43 -145 131 11 47 61 99 97 99 16 0 38 -4 48 -10z m250 -9 c49 -25 83
-78 76 -115 -10 -47 -34 -76 -79 -96 -68 -29 -203 -33 -157 -5 16 10 12 176
-4 208 l-15 27 72 0 c51 0 83 -5 107 -19z m-440 -19 c19 -15 23 -30 25 -85 2
-51 -2 -70 -14 -81 -47 -43 -118 41 -107 127 4 31 3 30 31 45 28 16 39 15 65
-6z"/>
<path d="M2342 311 c-33 -20 -36 -97 -5 -133 18 -21 37 -14 52 18 27 60 -5
141 -47 115z m26 -71 c1 -24 -3 -40 -9 -40 -6 0 -9 9 -6 19 3 14 1 18 -9 14
-8 -3 -14 0 -14 6 0 6 4 11 10 11 5 0 7 7 4 15 -4 9 0 15 8 15 10 0 15 -13 16
-40z"/>
<path d="M2561 235 c1 -78 3 -85 21 -85 29 0 78 53 78 85 0 32 -49 85 -79 85
-20 0 -21 -5 -20 -85z m69 -5 c0 -25 -16 -50 -32 -50 -4 0 -8 23 -8 50 0 48 1
50 20 38 12 -8 20 -24 20 -38z"/>
<path d="M1025 90 c4 -6 11 -8 16 -5 14 9 11 15 -7 15 -8 0 -12 -5 -9 -10z"/>
</g>
</svg>
